<?xml version="1.0" standalone="no"?>
<!DOCTYPE svg PUBLIC "-//W3C//DTD SVG 20010904//EN"
 "http://www.w3.org/TR/2001/REC-SVG-20010904/DTD/svg10.dtd">
<svg version="1.0" xmlns="http://www.w3.org/2000/svg"
 width="320.000000pt" height="320.000000pt" viewBox="0 0 320.000000 320.000000"
 preserveAspectRatio="xMidYMid meet">
<metadata>
Created by potrace 1.14, written by Peter Selinger 2001-2017
</metadata>
<g transform="translate(0.000000,320.000000) scale(0.100000,-0.100000)"
fill="#000000" stroke="none">
<path d="M1400 3189 c-25 -4 -63 -10 -85 -13 -22 -4 -49 -9 -60 -13 -11 -4
-24 -7 -30 -8 -44 -6 -95 -19 -95 -24 0 -4 -8 -7 -17 -8 -10 -1 -31 -7 -48
-14 -16 -7 -34 -13 -40 -14 -5 -2 -28 -11 -50 -20 -22 -10 -42 -19 -45 -20
-12 -3 -85 -40 -90 -45 -3 -3 -21 -14 -40 -24 -39 -22 -142 -87 -150 -96 -3
-3 -25 -21 -50 -40 -56 -42 -203 -190 -250 -250 -98 -126 -204 -312 -245 -430
-1 -3 -5 -12 -8 -20 -17 -39 -54 -166 -63 -215 -6 -33 -13 -68 -20 -100 -4
-16 -7 -117 -9 -222 -2 -185 4 -249 35 -373 7 -25 14 -55 16 -68 9 -48 75
-217 116 -295 47 -92 121 -207 181 -282 47 -58 190 -201 231 -230 15 -11 37
-28 49 -37 12 -10 27 -21 32 -26 28 -22 107 -72 115 -72 4 0 10 -4 12 -8 6
-16 231 -119 298 -137 3 -1 12 -5 20 -8 56 -23 185 -51 295 -64 121 -15 381
-8 475 12 14 3 39 8 55 11 47 8 191 51 214 63 12 7 21 9 21 6 0 -3 12 1 28 9
37 21 141 66 148 65 4 0 10 3 13 8 3 5 33 24 66 43 33 19 62 36 65 39 3 4 22
17 42 31 21 14 38 28 38 33 0 4 5 7 10 7 20 0 186 159 250 240 19 24 43 52 53
62 9 10 17 20 17 23 0 2 24 42 53 87 29 45 51 86 49 90 -1 4 2 8 7 8 9 0 23
30 18 40 -1 3 8 19 21 37 12 17 22 33 22 36 0 3 5 18 12 34 6 15 12 30 13 33
0 3 11 38 24 78 13 40 24 80 26 90 2 9 4 19 5 22 1 3 3 10 4 15 1 6 5 24 8 40
4 17 10 50 13 75 4 25 9 61 12 80 9 48 8 261 0 340 -12 117 -15 134 -35 210
-34 129 -71 231 -125 340 -28 58 -55 110 -59 115 -5 6 -36 50 -70 99 -62 88
-207 243 -282 301 -21 17 -45 36 -52 43 -7 6 -17 12 -22 12 -6 0 -12 4 -14 9
-4 11 -164 111 -178 111 -5 0 -10 5 -10 10 0 6 -7 10 -15 10 -8 0 -31 9 -51
21 -88 49 -311 113 -474 135 -69 9 -349 12 -400 3z"/>
</g>
</svg>
